<svg id="Layer_1" data-name="Layer 1" xmlns="http://www.w3.org/2000/svg" viewBox="0 0 841.89 595.28"><defs><style>.cls-1{fill:#ff2c38;}.cls-2{fill:#fff;}</style></defs><title>297mmx210mm_meetrix_logo_svg</title><circle class="cls-1" cx="159.42" cy="297.64" r="159.42"/><path class="cls-2" d="M67.56,220.89h53.87L159.53,301l37.88-80.14h53.87v153.5H206.82V290.3L176,359.5H142.89L112,290.3v84.08H67.56V220.89Z"/><path d="M405.37,282.4a43.89,43.89,0,0,1,17.94,18.74q6.21,12.17,6.21,28.5,0,3.38-.18,5.15H366.12a16.78,16.78,0,0,0,6.13,8.61,17,17,0,0,0,10,2.93q10.48,0,19.71-8.7L422.77,358a50.91,50.91,0,0,1-18.91,13.23,66,66,0,0,1-25.13,4.53q-16.34,0-28.33-6.13a42.76,42.76,0,0,1-18.29-17.31q-6.31-11.19-6.3-26.11,0-15.27,6.39-26.64A43.84,43.84,0,0,1,350.41,282q11.81-6.21,27.26-6.21Q393.65,275.83,405.37,282.4Zm-18.91,24a11,11,0,0,0-16.69-.18,21.06,21.06,0,0,0-4.53,10.12h24.15A13.62,13.62,0,0,0,386.46,306.37Z"/><path d="M481.85,275.83q15.45,0,27.26,6.21a43.84,43.84,0,0,1,18.2,17.58q6.39,11.37,6.39,26.64,0,14.92-6.3,26.11a42.76,42.76,0,0,1-18.29,17.31q-12,6.13-28.32,6.13a66,66,0,0,1-25.13-4.53A50.92,50.92,0,0,1,436.74,358l20.78-20.42q9.24,8.7,19.71,8.7a17,17,0,0,0,10-2.93,16.79,16.79,0,0,0,6.13-8.61H430.17Q430,333,430,329.63q0-16.34,6.21-28.5a43.9,43.9,0,0,1,17.94-18.74Q465.86,275.83,481.85,275.83Zm-11.72,40.49h24.15a21.06,21.06,0,0,0-4.53-10.12,11,11,0,0,0-16.69.18A13.63,13.63,0,0,0,470.13,316.32Z"/><path d="M544.8,374.29V303.92H531.48V277.27H544.8V248.56h39.78v28.71h22.73v26.65H584.58v70.37H544.8Z"/><path d="M664.81,279.64a34.48,34.48,0,0,1,17-4.17v36a56.5,56.5,0,0,0-7.64-.53q-10.3,0-16.16,4.53T652.11,328v46.35h-40V277.25h40v14.21A36.59,36.59,0,0,1,664.81,279.64Z"/><path d="M719.07,235q5.68,5.69,5.68,14.56t-5.68,14.56q-5.69,5.69-14.56,5.68t-14.56-5.68q-5.69-5.68-5.68-14.56T689.94,235q5.68-5.68,14.56-5.68T719.07,235ZM685,275.47h40v98.91H685V275.47Z"/><path d="M723.81,275.47h46.65l11.39,23.15,13.38-23.15h44.48L809,323.57l32.91,50.81H795.05l-13.2-25.68-15.37,25.68H721.82l32.73-50.63Z"/></svg>